<svg xmlns="http://www.w3.org/2000/svg" viewBox="0 0 283.46 283.46"><defs><style>.b9c29102-5544-415f-a4b8-aa2f3f9be361{fill:#fff;}</style></defs><g id="ab1c5141-6915-4ad8-ab26-ed0fc136c2c8" data-name="图层 2"><g id="aefce7b2-e04d-4958-8ba7-1cfbd91ce891" data-name="图层 1"><path class="b9c29102-5544-415f-a4b8-aa2f3f9be361" d="M272.33,140.13c1,14.14-10.54,25.74-24.71,25.74H175.25c-14.16,0-25.66-11.6-24.7-25.74a24.18,24.18,0,0,1,24-22.45h73.7A24.18,24.18,0,0,1,272.33,140.13Z"/><path class="b9c29102-5544-415f-a4b8-aa2f3f9be361" d="M207.83,198.43c-44.92,0-80.12-24.91-80.12-56.7S162.91,85,207.83,85c34.5,0,63.24,14.69,74.73,35.89a.48.48,0,0,0,.9-.29C273.22,52.37,214,0,142.51,0,63.81,0,0,63.46,0,141.73S63.81,283.46,142.51,283.46c71.33,0,130.42-52.11,140.87-120.15a.56.56,0,0,0-1.05-.36C270.68,183.93,242.1,198.43,207.83,198.43Z"/></g></g></svg>