<svg xmlns="http://www.w3.org/2000/svg" viewBox="0 0 582.64 113.46"><defs><style>.a80f7a29-c5f9-427c-a576-3660c5404039{fill:#fff;}</style></defs><g id="b963dbce-1841-4ca4-bc50-be74a649f44d" data-name="图层 2"><g id="ae751f4d-620c-48ec-acfd-cecbedeabd4d" data-name="图层 1"><polygon class="a80f7a29-c5f9-427c-a576-3660c5404039" points="15.12 98.27 15.12 0 0 0 0 113.39 77.86 113.39 77.86 98.27 15.12 98.27"/><path class="a80f7a29-c5f9-427c-a576-3660c5404039" d="M113.39,0H128.5V113.39H113.39Z"/><rect class="a80f7a29-c5f9-427c-a576-3660c5404039" x="183.68" width="15.12" height="113.39"/><rect class="a80f7a29-c5f9-427c-a576-3660c5404039" x="260.63" width="15.12" height="113.39"/><polygon class="a80f7a29-c5f9-427c-a576-3660c5404039" points="275.75 113.39 257.89 113.39 183.68 0 201.54 0 275.75 113.39"/><path class="a80f7a29-c5f9-427c-a576-3660c5404039" d="M424.75,49.12H368.51V64.26h56.28a57.81,57.81,0,0,0,.49-7.49A56.7,56.7,0,0,0,424.75,49.12Z"/><path class="a80f7a29-c5f9-427c-a576-3660c5404039" d="M409.38,64.26a41.52,41.52,0,1,1-40.87-49.05,41.32,41.32,0,0,1,29.37,12.27l10.9-10.9A57.24,57.24,0,0,0,368.51.08a56.37,56.37,0,0,0-56.62,56.76,56.7,56.7,0,0,0,112.9,7.42Z"/><polygon class="a80f7a29-c5f9-427c-a576-3660c5404039" points="483.97 0 465.98 0 503.32 56.69 465.98 113.39 483.97 113.39 521.16 56.69 483.97 0"/><polygon class="a80f7a29-c5f9-427c-a576-3660c5404039" points="564.64 0 582.64 0 545.29 56.69 582.64 113.39 564.64 113.39 527.45 56.69 564.64 0"/></g></g></svg>